<svg width="190" height="196" viewBox="0 0 190 196" fill="none" xmlns="http://www.w3.org/2000/svg">
<path d="M182.02 132.41C188.9 143 191.12 156.09 187.95 167.43C184.52 179.7 174.85 189.38 163.32 192.1C161.05 192.63 158.71 192.9 156.35 192.9C146.04 192.9 135.23 187.93 127.38 179.23C122.41 173.73 119.12 167.81 116.31 159.21C106.26 176.03 89.9 189.53 70.74 194.33C55.02 198.28 37.62 195.12 24.35 185.79C10.98 176.27 4.16001 159.05 6.03001 142.93C8.06001 125.37 19.44 109.05 35.59 101.67C38.41 100.34 41.33 99.29 44.25 98.31C37.13 98.43 30.04 97.1 23.46 93.9C5.5 85.47 -1.57998 67.63 1.20002 48.62C3.23002 35.55 9.03 22.8 18.71 13.6C27.81 4.81001 41.64 0.720006 53.82 4.98001C65.85 9.05001 72.2 21.28 72.2 33.44C78.48 25.97 83.62 19.97 91.75 13.94C104.79 4.26 119.24 -0.669994 132.44 0.070006C148.04 0.950006 162.15 10.31 167.55 23.37C173.38 37.47 169.19 53.72 165.82 66.79C162.12 81.14 158.99 96.21 164.76 108.84C167.14 114.04 170.94 118.53 174.61 122.87C177.17 125.89 179.81 129.02 182.01 132.4L182.02 132.41ZM186.01 166.89C189.03 156.1 186.9 143.62 180.33 133.51C178.2 130.23 175.6 127.15 173.08 124.18C169.32 119.73 165.43 115.13 162.94 109.68C156.89 96.45 160.09 80.99 163.88 66.3C167.18 53.52 171.27 37.63 165.7 24.15C160.59 11.79 147.18 2.93001 132.33 2.09001C119.61 1.37001 105.62 6.16001 92.95 15.57C84.72 21.68 79.57 27.81 73.06 35.57L72.06 36.76C70.99 48.77 64.15 59.59 55.71 67.9C62.59 58.91 68.66 48.92 69.96 37.52C70.94 28.06 68.1 17.7 60.66 11.43C53.86 5.65001 44.12 4.49001 35.65 6.73001C23.98 9.73001 15.13 19.28 9.84001 29.81C4.50001 40.45 1.78 52.78 3.8 64.61C8.04 90.58 36.16 101.39 59.47 93.71C71.09 90.2 81.27 83.14 90.06 74.86C94.49 70.69 98.6 66.17 102.59 61.52C95.76 71.74 87.24 81 76.88 87.77C69.22 92.84 60.26 96.44 51.07 97.77C40.28 101.44 30.82 104.56 22.59 113.12C1.74001 133.89 2.70002 170.79 29.23 186.23C43.98 194.8 62.53 196.1 78.31 189.59C96.69 182.19 111.98 166.71 119.41 148.36C124.7 135.05 126.17 120.45 123.8 106.21C128.59 122.92 125.97 141.59 117.67 156.86C120.52 166.13 123.78 172.26 128.87 177.89C138.04 188.05 151.38 192.86 162.86 190.15C173.53 187.63 182.83 178.29 186.02 166.89H186.01Z" fill="black"/>
<path d="M56.4901 162C67.4301 144.22 79.7801 132.87 79.7801 132.87C77.8501 133.42 76.2601 133.67 74.9401 133.67C62.2201 133.67 76.0301 110.24 76.6401 109.22C64.0301 129.18 53.8201 132.47 51.5401 132.98C51.3901 133.01 51.2501 133.03 51.0901 133.06C51.1501 133.06 51.3001 133.03 51.5401 132.98C53.1501 132.7 54.5701 132.57 55.8301 132.57C73.7101 132.57 58.4301 158.79 56.4901 162ZM180.33 133.5C186.9 143.61 189.03 156.09 186.01 166.88C182.83 178.27 173.52 187.62 162.85 190.14C151.38 192.85 138.03 188.04 128.86 177.88C123.77 172.24 120.51 166.12 117.66 156.85C125.96 141.58 128.58 122.91 123.79 106.2C126.16 120.45 124.69 135.04 119.4 148.35C111.98 166.71 96.6901 182.18 78.3001 189.58C62.5201 196.1 43.9701 194.79 29.2201 186.22C2.69007 170.78 1.73006 133.88 22.5801 113.11C30.8101 104.55 40.2701 101.43 51.0601 97.76C60.2501 96.43 69.2101 92.83 76.8701 87.76C87.2301 80.99 95.7501 71.72 102.58 61.51C98.5901 66.16 94.4801 70.68 90.0501 74.85C81.2701 83.13 71.0801 90.2 59.4601 93.7C36.1501 101.38 8.03008 90.56 3.79008 64.6C1.77008 52.77 4.49006 40.43 9.83006 29.8C15.1201 19.27 23.9701 9.72 35.6401 6.72C44.1201 4.48 53.8501 5.65 60.6501 11.42C68.0901 17.69 70.9301 28.05 69.9501 37.51C68.6601 48.9 62.5801 58.9 55.7001 67.89C64.1401 59.58 70.9801 48.77 72.0501 36.75L73.0501 35.56C79.5701 27.8 84.7101 21.67 92.9401 15.56C105.61 6.15 119.59 1.36 132.32 2.08C147.17 2.92 160.58 11.78 165.69 24.14C171.26 37.62 167.17 53.51 163.87 66.29C160.08 80.99 156.89 96.45 162.93 109.67C165.42 115.13 169.31 119.72 173.07 124.17C175.59 127.15 178.19 130.22 180.32 133.5H180.33Z" fill="#18CAFE"/>
<path d="M74.93 133.67C76.25 133.67 77.84 133.42 79.77 132.87C79.77 132.87 67.43 144.22 56.48 162C58.42 158.79 73.7 132.57 55.82 132.57C54.56 132.57 53.13 132.7 51.53 132.98C53.81 132.47 64.02 129.18 76.63 109.22C76.02 110.24 62.21 133.67 74.93 133.67ZM65.86 145.22C69.06 141.22 71.96 137.98 74.16 135.65C70.91 135.43 69.31 133.81 68.54 132.44C67.39 130.39 67.25 127.55 68.13 123.82C65.09 127.1 62.32 129.43 59.95 131.08C62.31 131.75 64.05 133.07 65.16 135.04C66.56 137.52 66.79 140.94 65.86 145.23V145.22Z" fill="black"/>
<path d="M51.09 133.06C51.24 133.03 51.39 133.01 51.54 132.98C51.31 133.03 51.15 133.05 51.09 133.06Z" fill="#31BF62"/>
</svg>
