<?xml version="1.0" encoding="UTF-8"?>
<svg id="Layer_2" data-name="Layer 2" xmlns="http://www.w3.org/2000/svg" viewBox="0 0 211.66 229.3">
  <defs>
    <style>
      .cls-1 {
        fill: none;
        stroke: #1d1d1b;
        stroke-miterlimit: 10;
        stroke-width: 1.5px;
      }

      .cls-2 {
        fill: #18cafe;
      }
    </style>
  </defs>
  <g id="Layer_1-2" data-name="Layer 1">
    <g>
      <g>
        <path class="cls-2" d="m80.06,132.88h0c1.2-1.55,2.66-2.9,4.29-4.05,2.57-1.81,5.57-3.12,8.6-3.93,6.14-1.62,12.57-1.5,18.92-1.58,13.66-.16,27.32-1.29,40.84-3.37,7.99-1.23,15.97-2.8,24.05-2.84,1.27,0,2.55.03,3.83.11,6.84.43,13.63,2.18,19.24,6.04,20.42,14.1,7.63,42.16,1.06,60.27-5.05,13.92-7.55,24.68-8.41,45H20.9v-72.28l.3-1.28c3.04,1.72,6.37,2.88,9.84,3.05,4.92.24,9.89-1.57,13.42-4.89,1.21-1.14,2.24-2.44,3.07-3.87,5.24,3.99,11.51,6.44,18.26,4.91,5.32-1.2,8.67-5.12,10.87-9.91h0c-.19-2.87.27-5.74,1.5-8.35.52-1.09,1.15-2.11,1.88-3.05Z"/>
        <path class="cls-2" d="m127.8,79.75c2.31-14.45,6.3-28.5,12.04-42.4,4.55-11.01,10.57-21.57,20.3-28.44,5.09-3.6,11.25-5.85,17.38-5.3,13.87,1.24,17.88,14.25,15.66,26.73-3.17,17.84-7.58,35.24-9.92,53.3-1.44,11.13-2.4,22.35-2.69,33.59-1.28-.08-2.56-.11-3.83-.11-8.08.04-16.07,1.61-24.05,2.84-13.51,2.08-27.17,3.2-40.84,3.37-6.34.08-12.78-.04-18.92,1.58-3.04.8-6.03,2.11-8.6,3.93-5.55-18.82-10.33-38.02-12.19-57.33-1.19-12.32-1.19-24.68.55-36.99.89-6.27,2.26-12.57,5.16-18.26s7.47-10.79,13.47-13.47c5.42-2.42,12.73-2.94,18.08-.14,12.23,6.41,10.72,26.78,11.79,37.64,1.35,13.69,3.17,26.63,6.59,39.46Z"/>
        <path class="cls-2" d="m80.06,132.87h0c-.73.95-1.37,1.97-1.88,3.06-1.24,2.62-1.69,5.49-1.5,8.35h0c-2.21,4.8-5.56,8.72-10.87,9.92-6.76,1.53-13.02-.92-18.26-4.91-.66-.51-1.31-1.03-1.94-1.58-11.16-9.73-14.82-25.87-15.36-40.11-.21-5.69.18-11.41,1.2-17.02.57-3.16,1.21-6.56,2.3-9.74.65-1.9,1.47-3.71,2.53-5.34,5.25-8.05,14.73-12.26,24.26-10.17,4.37.96,8.38,3.17,11.63,6.19,1.86,19.3,6.65,38.51,12.19,57.33-1.62,1.15-3.08,2.49-4.29,4.04Z"/>
        <path class="cls-2" d="m45.59,147.71c.63.55,1.28,1.08,1.94,1.58-.83,1.42-1.86,2.73-3.07,3.87-3.53,3.32-8.51,5.14-13.42,4.89-3.48-.17-6.81-1.33-9.84-3.05-1.82-1.03-3.53-2.27-5.1-3.63C5.5,142.23.63,127.91.75,114.14c.07-7.32,1.48-14.76,5.2-21.09,3.71-6.34,9.93-11.47,17.27-12.9,3.47-.67,7.15-.42,10.51.69-1.09,3.18-1.73,6.58-2.3,9.74-1.02,5.61-1.41,11.33-1.2,17.02.54,14.24,4.2,30.38,15.36,40.11Z"/>
      </g>
      <g>
        <path class="cls-1" d="m80.06,132.87c1.2-1.55,2.66-2.89,4.29-4.04,2.57-1.81,5.57-3.12,8.6-3.93,6.14-1.62,12.57-1.5,18.92-1.58,13.66-.16,27.32-1.29,40.84-3.37,7.99-1.23,15.97-2.8,24.05-2.84,1.27,0,2.55.03,3.83.11,6.84.43,13.63,2.18,19.24,6.04,20.42,14.1,7.63,42.16,1.06,60.27-5.05,13.92-7.55,24.68-8.41,45H20.9v-72.28"/>
        <path class="cls-1" d="m76.67,144.28c-.19-2.86.27-5.73,1.5-8.35.52-1.09,1.15-2.11,1.88-3.05"/>
        <path class="cls-1" d="m149.25,167.25c-11.47,5.96-31.46,5.52-46.56,1.57-.9-.23-1.8-.49-2.69-.77-6.64-2.04-13.02-5.21-17.6-10.36-3.27-3.68-5.42-8.54-5.73-13.4"/>
        <path class="cls-1" d="m125.37,110.71c.01-10.57.81-20.86,2.43-30.96,2.31-14.45,6.3-28.5,12.04-42.4,4.55-11.01,10.57-21.57,20.3-28.44,5.09-3.6,11.25-5.85,17.38-5.3,13.87,1.24,17.88,14.25,15.66,26.73-3.17,17.84-7.58,35.24-9.92,53.3-1.44,11.13-2.4,22.35-2.69,33.59"/>
        <path class="cls-1" d="m127.8,79.75c-3.43-12.83-5.24-25.77-6.59-39.46-1.08-10.86.43-31.23-11.79-37.64-5.36-2.81-12.66-2.29-18.08.14-6,2.68-10.57,7.78-13.47,13.47s-4.27,11.99-5.16,18.26c-1.75,12.31-1.75,24.67-.55,36.99,1.86,19.3,6.65,38.51,12.19,57.33"/>
        <path class="cls-1" d="m100,168.05c-9.89-.97-18.23,1.03-26.98,5.49-8.64,4.42-15.15,10.55-19.48,19.04"/>
        <path class="cls-1" d="m72.15,71.51c-3.25-3.02-7.26-5.23-11.63-6.19-9.52-2.09-19.01,2.12-24.26,10.17-1.06,1.63-1.88,3.45-2.53,5.34-1.09,3.18-1.73,6.58-2.3,9.74-1.02,5.61-1.41,11.33-1.2,17.02.54,14.24,4.2,30.38,15.36,40.11.63.55,1.28,1.08,1.94,1.58,5.24,3.99,11.51,6.44,18.26,4.91,5.32-1.2,8.67-5.12,10.87-9.91h0"/>
        <path class="cls-1" d="m80.06,132.88h0c.02-.12.04-.23.07-.34"/>
        <path class="cls-1" d="m34.43,81.07c-.23-.09-.46-.16-.7-.23-3.36-1.11-7.04-1.36-10.51-.69-7.34,1.43-13.56,6.56-17.27,12.9-3.72,6.33-5.13,13.77-5.2,21.09-.12,13.77,4.75,28.09,15.35,37.23,1.57,1.36,3.28,2.6,5.1,3.63,3.04,1.72,6.37,2.88,9.84,3.05,4.92.24,9.89-1.57,13.42-4.89,1.21-1.14,2.24-2.44,3.07-3.87.19-.32.36-.64.53-.97"/>
      </g>
    </g>
  </g>
</svg>