<svg width="567" height="230" viewBox="0 0 567 230" fill="none" xmlns="http://www.w3.org/2000/svg">
<g clip-path="url(#clip0_48_94)">
<path d="M243.84 116.56C250.43 82.33 257.19 52.13 285.92 49.13C300.62 47.59 328.39 53.96 333.91 64.83L350.67 41.06H368.2L348.33 136.77C346.57 145.21 347.65 149.09 355.92 148.22L358.07 148L351.84 179.78L338.22 181.2C312.34 182.75 322.78 177.49 320.27 169.5C312.26 180.19 301.54 188.54 287.22 189.19C266.91 190.11 269.69 189.19 258.52 189.07C239.33 188.87 238.57 144.66 243.83 116.56H243.84ZM318.62 121.72C324 101.2 318 83.59 306.27 83.3C293.35 82.98 282.12 98.32 277.97 114.9C273.07 134.36 277.7 153.54 291.08 153.87C303.97 154.19 314.07 138.82 318.62 121.71V121.72Z" fill="black" stroke="black" stroke-width="1.5" stroke-miterlimit="10" stroke-linecap="square"/>
<path d="M382.63 88.77C385.09 78.94 383.37 75.39 376.58 76.1L373.17 76.46L374.22 42.85H391.75C405.59 41.4 410.26 49.17 410.36 61.92C418.84 46.67 426.14 37.42 439.58 36.01H457.11L449.71 73.52L438.02 74.74C423.32 76.28 412.65 85.63 407.45 110.92L400.11 151.07L417.38 173.6L351.84 179.77L382.62 88.76L382.63 88.77Z" fill="black" stroke="black" stroke-width="1.5" stroke-miterlimit="10" stroke-linecap="square"/>
<path d="M423.22 108.82H440.75C446.01 123.84 463.4 138.7 483.1 139.44C495.48 139.91 503.38 132.31 503.75 125.17C504.16 117.45 489.11 114.38 478.45 110.29C460.76 103.52 453.38 88.79 455.35 69.79C457.66 47.52 464.26 30.65 487.24 28.25C507.47 26.14 536.61 35.21 543.67 49.11L518.99 70.85C511.46 70.57 508.79 71.3 501.46 70.85C502.68 62.6 505.24 57.37 497.89 58.14C490.02 58.96 483.92 63.63 483.9 70.25C483.87 78.22 492.76 82.64 503.77 85.73C519.61 90.2 542.82 104.13 537.46 129.78C532.49 153.57 515.7 168.72 466.18 168.72C436.72 168.72 430.94 119.89 423.23 108.8L423.22 108.82Z" fill="black" stroke="black" stroke-width="1.5" stroke-miterlimit="10" stroke-linecap="square"/>
<path d="M155.77 17.57H173.3L155.49 111.57L238.76 0.75H256.3L227.77 169.24L243.09 190.08L171.34 195.41L203.16 104.65L144.74 199.21L91.8199 202.64L122.14 113.24L74.6999 185.07L84.9999 205.11L1.6499 211.28L155.77 17.57Z" fill="black" stroke="black" stroke-width="1.5" stroke-miterlimit="10" stroke-linecap="square"/>
<path d="M19.1899 228.55H565.29V177.56H547.76L19.1899 228.55Z" fill="black" stroke="black" stroke-width="1.5" stroke-miterlimit="10" stroke-linecap="square"/>
<path d="M226.31 116.56C232.9 82.33 257.19 52.13 285.92 49.13C300.62 47.59 310.86 53.96 316.38 64.83L319.62 48.26L350.66 41.06L330.79 136.77C329.03 145.21 330.11 149.09 338.38 148.22L340.53 148L334.3 179.78L320.68 181.2C311.1 182.2 305.24 177.49 302.73 169.5C294.72 180.19 283.93 187.7 269.68 189.19C233.49 192.97 218.47 158.36 226.29 116.57L226.31 116.56ZM301.09 121.72C306.47 101.2 300.47 83.59 288.74 83.3C275.82 82.98 264.59 98.32 260.44 114.9C255.54 134.36 260.17 153.54 273.55 153.87C286.44 154.19 296.54 138.82 301.09 121.71V121.72Z" fill="#FA97D8" stroke="black" stroke-width="1.5" stroke-linecap="square" stroke-linejoin="bevel"/>
<path d="M365.1 88.77C367.56 78.94 365.84 75.39 359.05 76.1L355.64 76.46L361.9 44.14L374.22 42.85C388.06 41.4 392.73 49.17 392.83 61.92C401.31 46.67 412.53 38.84 425.96 37.44L439.58 36.02L432.18 73.53L420.49 74.75C405.79 76.29 395.12 85.64 389.92 110.93L382.58 151.08L399.85 173.61L346.55 178.8L365.09 88.78L365.1 88.77Z" fill="#FA97D8" stroke="black" stroke-width="1.5" stroke-linecap="square" stroke-linejoin="bevel"/>
<path d="M416.47 142.55L423.22 108.82C428.48 123.84 445.87 138.7 465.57 139.44C477.95 139.91 485.85 132.31 486.22 125.17C486.63 117.45 471.58 114.38 460.92 110.29C443.23 103.52 435.85 88.79 437.82 69.79C440.13 47.52 460.49 30.97 483.47 28.56C503.7 26.45 519.08 35.21 526.13 49.11L501.45 70.85C497.23 62.5 490.15 57.12 480.35 58.14C472.48 58.96 466.38 63.63 466.36 70.25C466.33 78.22 475.22 82.64 486.23 85.73C502.07 90.2 525.28 104.13 519.92 129.78C514.95 153.57 492.48 169.3 466.18 168.72C436.72 168.08 424.19 153.62 416.48 142.53L416.47 142.55Z" fill="#FA97D8" stroke="black" stroke-width="1.5" stroke-linecap="square" stroke-linejoin="bevel"/>
<path d="M121.89 25.8L155.77 17.57L137.96 111.57L197.16 10.84L238.76 0.75L210.24 169.24L225.56 190.08L171.34 195.41L185.63 104.65L127.2 199.21L91.8199 202.64L104.61 113.24L57.1599 185.07L67.4699 205.11L1.6499 211.28L121.89 25.8Z" fill="#FA97D8" stroke="black" stroke-width="1.5" stroke-linecap="square" stroke-linejoin="bevel"/>
<path d="M1.6499 228.55H547.76V177.56L1.6499 228.55Z" fill="#FA97D8" stroke="black" stroke-width="1.5" stroke-linecap="square" stroke-linejoin="bevel"/>
</g>
<defs>
<clipPath id="clip0_48_94">
<rect width="566.04" height="229.3" fill="white"/>
</clipPath>
</defs>
</svg>
