<svg width="630" height="107" viewBox="0 0 630 107" fill="none" xmlns="http://www.w3.org/2000/svg">
<path d="M607.5 105.5H22.5C34.5 105.5 44.5001 96.5 44.5001 83.0699V26.0699C44.5001 20.5699 46.0001 4.06988 63.0001 4.06988C80.0001 4.06988 454.5 4.56988 479 4.06988C503.5 3.56988 506.5 5.56988 514.5 16.0699C519.379 22.473 584.5 96.0699 584.5 96.0699C584.5 96.0699 598.518 102.013 607.5 105.5Z" fill="#FBFBF6"/>
<path d="M22.5 105.5C22.5 105.5 378.848 105.5 607.5 105.5M22.5 105.5L10.5 105M22.5 105.5C34.5 105.5 44.5001 96.5 44.5001 83.0699V26.0699C44.5001 20.5699 46.0001 4.06988 63.0001 4.06988C80.0001 4.06988 454.5 4.56988 479 4.06988C503.5 3.56988 506.5 5.56988 514.5 16.0699C519.379 22.473 584.5 96.0699 584.5 96.0699C584.5 96.0699 598.518 102.013 607.5 105.5M607.5 105.5C611.796 104.719 618.5 103 618.5 103" stroke="#FBFBF6" stroke-width="2"/>
<path d="M0.850464 104.5C5.35046 104.5 14.6496 104.5 23.5 104.5C32.3505 104.5 43.5001 95.5 43.5001 82.0699C43.5001 68.6397 43.5001 30.5699 43.5001 25.0699C43.5001 19.5699 45.0001 3.06988 62.0001 3.06988C79.0001 3.06988 453.5 3.56988 478 3.06988C502.5 2.56988 505.5 4.56988 513.5 15.0699C518.379 21.473 584.5 95.0699 584.5 95.0699C584.5 95.0699 592.5 104 607.5 104C622.5 104 629.5 104 629.5 104" stroke="black" stroke-width="2.9"/>
</svg>
