<svg width="623" height="106" viewBox="0 0 623 106" fill="none" xmlns="http://www.w3.org/2000/svg">
<path d="M602.5 105H17C29 105 39.5 96.5 39.5 83.0699V26.0699C39.5 20.5699 41 4.06988 58 4.06988C75 4.06988 449.5 4.56988 474 4.06988C498.5 3.56988 501.5 5.56988 509.5 16.0699C514.379 22.473 579.5 96.0699 579.5 96.0699C579.5 96.0699 585.5 105 602.5 105Z" fill="#FBFBF6"/>
<path d="M17 105H602.5M17 105L6.5 102.5M17 105C29 105 39.5 96.5 39.5 83.0699V26.0699C39.5 20.5699 41 4.06988 58 4.06988C75 4.06988 449.5 4.56988 474 4.06988C498.5 3.56988 501.5 5.56988 509.5 16.0699C514.379 22.473 579.5 96.0699 579.5 96.0699C579.5 96.0699 585.5 105 602.5 105M602.5 105L615.5 104.5" stroke="#FBFBF6" stroke-width="2"/>
<path d="M0 102.57C4.5 102.57 8.7991 102.57 17.6496 102.57C26.5 102.57 38.5 95.5 38.5 82.0699C38.5 68.6397 38.5 30.5699 38.5 25.0699C38.5 19.5699 40 3.06988 57 3.06988C74 3.06988 448.5 3.56988 473 3.06988C497.5 2.56988 500.5 4.56988 508.5 15.0699C513.379 21.473 578.5 95.0699 578.5 95.0699C578.5 95.0699 585.5 103 602.5 103C619.5 103 622.5 103 622.5 103" stroke="black" stroke-width="3.8"/>
</svg>
